<svg id="Layer_1" data-name="Layer 1" xmlns="http://www.w3.org/2000/svg" viewBox="0 0 143.84 201.37"><defs><style>.cls-1{font-size:48px;stroke:#006f3b;font-family:BlairMdITCTTMedium, BlairMdITC TT;}.cls-1,.cls-6{fill:#006f3b;}.cls-2{letter-spacing:-0.07em;}.cls-3{letter-spacing:-0.01em;}.cls-4{letter-spacing:-0.01em;}.cls-5{letter-spacing:-0.07em;}.cls-7{fill:#ed1c24;}.cls-8{fill:#8dc63f;}.cls-9{fill:#c4df9b;}.cls-10{fill:#fff;}.cls-11{fill:#231f20;}.cls-12{fill:#f7941d;}</style></defs><title>logo 32x32</title><text class="cls-1" transform="translate(-44.01 241.73)"><tspan class="cls-2">p</tspan><tspan class="cls-3" x="36.58" y="0">a</tspan><tspan x="76.75" y="0">r</tspan><tspan class="cls-4" x="119.66" y="0">r</tspan><tspan class="cls-5" x="162.14" y="0">o</tspan><tspan x="204.24" y="0">t</tspan></text><path class="cls-6" d="M50.07,130.78c-2.68-1.1-13.77,11-15.72,13.58,0,0-12.3,13.92-11.43,32.49l.37.46c2.36,3.2,14.76-2.42,17.86-3.41a47.85,47.85,0,0,1,7-2.12c2.37-7,.21-15.94-.44-23-.53-5.85.8-12.16,2.29-17.64"/><path class="cls-6" d="M98.62,130.78c2.68-1.1,13.77,11,15.72,13.58,0,0,12.3,13.92,11.43,32.49l-.37.46c-2.36,3.2-14.76-2.42-17.86-3.41a47.85,47.85,0,0,0-7-2.12c-2.37-7-.21-15.94.44-23,.53-5.85-.8-12.16-2.29-17.64"/><path class="cls-7" d="M53.25,188.3A9,9,0,0,0,56,197.73s4.52,6.36,10.09,1.44c0,0,3.74-3.06,4-5.33a16.22,16.22,0,0,0-1-5S55.67,185,53.25,188.3Z"/><path class="cls-7" d="M94.77,188.88a9,9,0,0,1-3,9.32s-4.7,6.26-10.15,1.19c0,0-3.66-3.18-3.8-5.44a15.73,15.73,0,0,1,1.11-5S92.42,185.54,94.77,188.88Z"/><path class="cls-8" d="M62.25,19.77S38.49,22.14,15.5,47.49C15.5,47.49-2.26,68.84.24,87c0,0-3.36,15.47,18.93,36.68,0,0,8.91,12.23,27.91,11.38,0,0-8.55,21-9.51,29.27,0,0-2,11.67,4.47,17.17,0,0,28.13,27.45,64.2,1.5a14.56,14.56,0,0,0,3.82-6.08s8.51-13.92-8-41.66c0,0,33.69-2.93,41.14-44.93,0,0,6-33.67-20-51.67,0,0-21.55-22.26-53.39-19.41Z"/><line class="cls-8" x1="75.95" y1="30.42" x2="71.89" y2="30.59"/><path class="cls-8" d="M40.39,28.8C52.6,18.27,58.88,16.36,74.13,15c16.16-1.43,43.25-.47,54.65,16.63-6.33-4.1-18.18-9.31-25.66-8.55S87.47,27.05,86,34.95a18.66,18.66,0,0,0,0,5.73c.29,1.33,2,3.56,2,4.63,0,3.63-4.87,5.34-8.3,6.28-12.65,3.48-23.49-3.5-27.81-15.67-.77-2.15-3.07-11.1-.59-10.93"/><path class="cls-9" d="M80.37,104.11c5,2.34,7.89,5,13.67,5.25,12.14.6,20.35-6.6,23.66-17.55,3.71-12.29-2.14-22-14-26.84C95.2,61.53,83.12,64.8,75.7,70.8c-4.27,3.45-6.51,0-6.51,0C63,63.5,49.7,61.53,41.24,65c-11.89,4.84-17.75,14.55-14,26.84,3.3,11,11.52,18.15,23.66,17.55,5.79-.29,8.68-2.92,13.67-5.25C64.53,104.11,72.4,100.37,80.37,104.11Z"/><path class="cls-10" d="M79,75.34a11.89,11.89,0,0,1,6.21-6.08s9.67-4.16,19.57-.33c0,0,7.23,1.84,8.67,10.73,0,0,2,10.51-.93,15,0,0-6.42,12.91-19.39,10.21,0,0-4.27-.76-9.2-5C83.94,99.85,71.58,89.65,79,75.34Z"/><path class="cls-10" d="M66.92,76.59a12,12,0,0,0-6.57-5.7s-9.89-3.55-19.55.86c0,0-7.11,2.28-8,11.24,0,0-1.39,10.63,1.82,14.91,0,0,7.19,12.48,20,9,0,0,4.22-1,8.91-5.55C63.53,101.33,75.21,90.42,66.92,76.59Z"/><path class="cls-11" d="M101.52,74.65s6.7,2.45,8.84,7.93c0,0,1.58,4.58-2.14,11.85,0,0-1.23,4.37-8.39,5.2,0,0-12.23,3.66-16.56-6.54a38.07,38.07,0,0,1-1.8-4.62A9.67,9.67,0,0,1,82.29,83s2.89-7.94,8.84-9.74C91.14,73.29,95.72,71.6,101.52,74.65Z"/><path class="cls-10" d="M106.57,82.63a3.71,3.71,0,1,1-2.73-4.57A3.78,3.78,0,0,1,106.57,82.63Z"/><path class="cls-11" d="M55.91,76.22s6.71,2.67,8.71,8.2c0,0,1.48,4.63-2.41,11.89,0,0-1.37,4.34-8.6,5,0,0-12.38,3.37-16.49-7a35.56,35.56,0,0,1-1.66-4.68,9.49,9.49,0,0,1,1-5.43s3.06-7.93,9.09-9.59C45.51,74.63,50.16,73,55.91,76.22Z"/><path class="cls-10" d="M60.65,83.93A3.74,3.74,0,1,1,58,79.28,3.78,3.78,0,0,1,60.65,83.93Z"/><path class="cls-9" d="M47.24,181.37s-.67-30.67,26-33.67c0,0,26-4,30.33,32.34C103.57,180,78.24,204.37,47.24,181.37Z"/><path class="cls-12" d="M75.6,135.1s-14.17-6.73-15.84-29.4c0,0,12.3-11.76,30.3-.4C90.06,105.31,87.78,128.6,75.6,135.1Z"/><polygon class="cls-6" points="17.18 41.88 13.59 41.88 13.59 23.84 17.19 26.77 17.18 41.88"/><polygon class="cls-6" points="80.23 21.19 47.08 46.68 13.59 21.52 46.86 0 80.23 21.19"/></svg>